<?xml version="1.0" encoding="UTF-8"?>

<svg version="1.2" baseProfile="tiny" width="211.71mm" height="141.11mm" viewBox="0 0 21171 14111"
     preserveAspectRatio="xMidYMid" fill-rule="evenodd" stroke-width="28.222" stroke-linejoin="round"
     xmlns="http://www.w3.org/2000/svg"
     xml:space="preserve">
    <g visibility="visible" id="Slide_1_page1">
  <g>
   <path fill="rgb(242,242,242)" stroke="none"
         d="M 5063,610 C 6920,610 8338,2028 8338,3885 8338,5742 6920,7160 5063,7160 3206,7160 1788,5742 1788,3885 1788,2028 3206,610 5063,610 Z"/>
      <path fill="none" stroke="rgb(166,166,166)" id="Drawing_2_Oval_55_0" stroke-width="53"
            d="M 5063,610 C 6920,610 8338,2028 8338,3885 8338,5742 6920,7160 5063,7160 3206,7160 1788,5742 1788,3885 1788,2028 3206,610 5063,610 Z"/>
      <rect fill="none" stroke="none" x="1788" y="610" width="6551" height="6551"/>
  </g>
        <g>
   <path fill="rgb(68,114,196)" fill-opacity="0.671" stroke="rgb(255,255,255)" stroke-opacity="0.671"
         d="M 7331,5463 L 4206,5463 4206,3978 10456,3978 10456,5463 7331,5463 Z"/>
            <rect fill="none" stroke="none" x="4206" y="3978" width="6251" height="1486"/>
            <rect fill="none" stroke="none" x="4206" y="3979" width="6251" height="1486"/>
  </g>
        <g>
   <path fill="rgb(68,114,196)" stroke="none"
         d="M 4541,2533 C 4644,2533 4724,2612 4724,2715 4724,2818 4644,2898 4541,2898 4438,2898 4359,2818 4359,2715 4359,2612 4438,2533 4541,2533 Z"/>
            <rect fill="none" stroke="none" x="4359" y="2533" width="366" height="367"/>
            <rect fill="none" stroke="none" x="4360" y="2534" width="366" height="366"/>
  </g>
        <g>
   <path fill="rgb(68,114,196)" stroke="none"
         d="M 6649,3528 C 6752,3528 6832,3607 6832,3710 6832,3813 6752,3893 6649,3893 6546,3893 6467,3813 6467,3710 6467,3607 6546,3528 6649,3528 Z"/>
            <rect fill="none" stroke="none" x="6467" y="3528" width="366" height="366"/>
            <rect fill="none" stroke="none" x="6468" y="3529" width="366" height="366"/>
  </g>
        <g>
   <path fill="rgb(68,114,196)" stroke="none"
         d="M 3873,4395 C 3976,4395 4056,4474 4056,4577 4056,4680 3976,4760 3873,4760 3770,4760 3691,4680 3691,4577 3691,4474 3770,4395 3873,4395 Z"/>
            <rect fill="none" stroke="none" x="3691" y="4395" width="366" height="366"/>
            <rect fill="none" stroke="none" x="3692" y="4396" width="366" height="366"/>
  </g>
        <g>
   <path fill="none" stroke="rgb(118,113,113)" id="Drawing_7_Oval_13_0" stroke-width="53"
         d="M 5648,5313 C 5751,5313 5831,5392 5831,5495 5831,5598 5751,5678 5648,5678 5545,5678 5466,5598 5466,5495 5466,5392 5545,5313 5648,5313 Z"/>
            <rect fill="none" stroke="none" x="5467" y="5314" width="366" height="366"/>
  </g>
        <g>
   <path fill="none" stroke="rgb(118,113,113)" id="Drawing_8_Oval_15_0" stroke-width="53"
         d="M 6706,5370 C 6809,5370 6889,5449 6889,5552 6889,5655 6809,5735 6706,5735 6603,5735 6524,5655 6524,5552 6524,5449 6603,5370 6706,5370 Z"/>
            <rect fill="none" stroke="none" x="6525" y="5371" width="366" height="366"/>
  </g>
        <g>
   <path fill="none" stroke="rgb(118,113,113)" id="Drawing_9_Oval_16_0" stroke-width="53"
         d="M 8106,3936 C 8209,3936 8289,4015 8289,4118 8289,4221 8209,4301 8106,4301 8003,4301 7924,4221 7924,4118 7924,4015 8003,3936 8106,3936 Z"/>
            <rect fill="none" stroke="none" x="7925" y="3937" width="366" height="366"/>
  </g>
        <g>
   <path fill="none" stroke="rgb(118,113,113)" id="Drawing_10_Oval_17_0" stroke-width="53"
         d="M 3197,3650 C 3300,3650 3380,3729 3380,3832 3380,3935 3300,4015 3197,4015 3094,4015 3015,3935 3015,3832 3015,3729 3094,3650 3197,3650 Z"/>
            <rect fill="none" stroke="none" x="3016" y="3651" width="366" height="366"/>
  </g>
        <g>
   <path fill="none" stroke="rgb(118,113,113)" id="Drawing_11_Oval_18_0" stroke-width="53"
         d="M 5916,2879 C 6019,2879 6099,2958 6099,3061 6099,3164 6019,3244 5916,3244 5813,3244 5734,3164 5734,3061 5734,2958 5813,2879 5916,2879 Z"/>
            <rect fill="none" stroke="none" x="5735" y="2880" width="366" height="366"/>
  </g>
        <g>
   <path fill="none" stroke="rgb(118,113,113)" id="Drawing_12_Oval_19_0" stroke-width="53"
         d="M 4878,5313 C 4981,5313 5061,5392 5061,5495 5061,5598 4981,5678 4878,5678 4775,5678 4696,5598 4696,5495 4696,5392 4775,5313 4878,5313 Z"/>
            <rect fill="none" stroke="none" x="4697" y="5314" width="366" height="366"/>
  </g>
        <g>
   <path fill="none" stroke="rgb(118,113,113)" id="Drawing_13_Oval_20_0" stroke-width="53"
         d="M 7709,2899 C 7812,2899 7892,2978 7892,3081 7892,3184 7812,3264 7709,3264 7606,3264 7527,3184 7527,3081 7527,2978 7606,2899 7709,2899 Z"/>
            <rect fill="none" stroke="none" x="7528" y="2900" width="366" height="366"/>
  </g>
        <g id="Drawing_14_TextBox_21">
   <rect fill="none" stroke="none" x="6851" y="6416" width="3090" height="717"/>
            <rect fill="none" stroke="none" x="6852" y="6416" width="3090" height="717"/>
            <g fill="rgb(102,102,102)" stroke="none" font-family="Helvetica, Arial, sans-serif" font-size="388"
               font-style="normal" font-weight="400">
    <text x="7101" y="6929">
     <tspan x="7101 7380 7596 7728 7943 8159 8265 8545 8760 8871 9150 9366 9493">Corda Network</tspan></text>
   </g>
  </g>
        <g>
   <path fill="none" stroke="rgb(68,114,196)" id="Drawing_15_Straight_Connector_23_0" stroke-width="53"
         d="M 3875,4396 L 4542,2900"/>
  </g>
        <g>
   <path fill="none" stroke="rgb(68,114,196)" id="Drawing_16_Straight_Connector_25_0" stroke-width="53"
         d="M 6468,3712 L 4672,2846"/>
  </g>
        <g>
   <path fill="none" stroke="rgb(68,114,196)" id="Drawing_17_Straight_Connector_27_0" stroke-width="53"
         d="M 4058,4579 L 6468,3712"/>
  </g>
        <g>
   <path fill="none" stroke="rgb(118,113,113)" id="Drawing_18_Oval_31_0" stroke-width="53"
         d="M 7353,4767 C 7456,4767 7536,4846 7536,4949 7536,5052 7456,5132 7353,5132 7250,5132 7171,5052 7171,4949 7171,4846 7250,4767 7353,4767 Z"/>
            <rect fill="none" stroke="none" x="7172" y="4768" width="366" height="366"/>
  </g>
        <g>
   <path fill="none" stroke="rgb(118,113,113)" id="Drawing_19_Oval_32_0" stroke-width="53"
         d="M 3588,5451 C 3691,5451 3771,5530 3771,5633 3771,5736 3691,5816 3588,5816 3485,5816 3406,5736 3406,5633 3406,5530 3485,5451 3588,5451 Z"/>
            <rect fill="none" stroke="none" x="3407" y="5452" width="366" height="366"/>
  </g>
        <g>
   <path fill="none" stroke="rgb(118,113,113)" id="Drawing_20_Oval_33_0" stroke-width="53"
         d="M 4304,5875 C 4407,5875 4487,5954 4487,6057 4487,6160 4407,6240 4304,6240 4201,6240 4122,6160 4122,6057 4122,5954 4201,5875 4304,5875 Z"/>
            <rect fill="none" stroke="none" x="4123" y="5876" width="366" height="366"/>
  </g>
        <g id="DrawingGroup_1_Group_36">
   <g>
    <path fill="rgb(222,235,247)" stroke="none"
          d="M 3829,10039 L 1863,10039 1863,8355 5794,8355 5794,10039 3829,10039 Z"/>
       <path fill="none" stroke="rgb(68,114,196)" id="Drawing_21_Rectangle_34_0" stroke-width="53"
             d="M 3829,10039 L 1863,10039 1863,8355 5794,8355 5794,10039 3829,10039 Z"/>
       <rect fill="none" stroke="none" x="1864" y="8355" width="3932" height="1685"/>
   </g>
            <g id="Drawing_22_TextBox_35">
    <rect fill="none" stroke="none" x="2010" y="8534" width="2920" height="1342"/>
                <rect fill="none" stroke="none" x="2011" y="8535" width="2920" height="1342"/>
                <g fill="rgb(118,113,113)" stroke="none" font-family="Helvetica, Arial, sans-serif" font-size="388"
                   font-style="normal" font-weight="700">
     <text x="2260" y="9140">
      <tspan x="2260 2539 2649 2929 3035 3314 3530 3746 3983 4093 4309 4525">DID Resolver</tspan></text>
    </g>
                <g fill="rgb(118,113,113)" stroke="none" font-family="Consolas, Courier, monospace" font-size="370"
                   font-style="normal" font-weight="400">
     <text x="2260" y="9675">
      <tspan x="2260 2451 2641 2836 3026 3217 3407 3602 3792">did:corda</tspan></text>
    </g>
   </g>
  </g>
        <g>
   <path fill="rgb(242,242,242)" stroke="none"
         d="M 8364,10039 L 6398,10039 6398,8355 10329,8355 10329,10039 8364,10039 Z"/>
            <path fill="none" stroke="rgb(118,113,113)" id="Drawing_23_Rectangle_38_0" stroke-width="35"
                  d="M 8364,10039 L 6398,10039 6398,8355 10329,8355 10329,10039 8364,10039 Z"/>
            <rect fill="none" stroke="none" x="6399" y="8355" width="3932" height="1685"/>
  </g>
        <g>
   <path fill="rgb(242,242,242)" stroke="none"
         d="M 8490,10173 L 6524,10173 6524,8489 10455,8489 10455,10173 8490,10173 Z"/>
            <path fill="none" stroke="rgb(118,113,113)" id="Drawing_24_Rectangle_40_0" stroke-width="35"
                  d="M 8490,10173 L 6524,10173 6524,8489 10455,8489 10455,10173 8490,10173 Z"/>
            <rect fill="none" stroke="none" x="6525" y="8489" width="3932" height="1685"/>
  </g>
        <g>
   <path fill="rgb(242,242,242)" stroke="none"
         d="M 8616,10308 L 6650,10308 6650,8624 10581,8624 10581,10308 8616,10308 Z"/>
            <path fill="none" stroke="rgb(118,113,113)" id="Drawing_25_Rectangle_41_0" stroke-width="35"
                  d="M 8616,10308 L 6650,10308 6650,8624 10581,8624 10581,10308 8616,10308 Z"/>
            <rect fill="none" stroke="none" x="6651" y="8624" width="3932" height="1685"/>
  </g>
        <g>
   <path fill="rgb(242,242,242)" stroke="none"
         d="M 8742,10432 L 6776,10432 6776,8748 10707,8748 10707,10432 8742,10432 Z"/>
            <path fill="none" stroke="rgb(118,113,113)" id="Drawing_26_Rectangle_42_0" stroke-width="35"
                  d="M 8742,10432 L 6776,10432 6776,8748 10707,8748 10707,10432 8742,10432 Z"/>
            <rect fill="none" stroke="none" x="6777" y="8748" width="3932" height="1685"/>
  </g>
        <g id="Drawing_27_TextBox_43">
   <rect fill="none" stroke="none" x="6957" y="8879" width="2336" height="1368"/>
            <rect fill="none" stroke="none" x="6958" y="8880" width="2336" height="1368"/>
            <g fill="rgb(102,102,102)" stroke="none" font-family="Helvetica, Arial, sans-serif" font-size="388"
               font-style="normal" font-weight="400">
    <text x="7207" y="9485">
     <tspan x="7207 7465 7550 7660 7876 8003 8219 8435 8545 8629 8824">Alternative</tspan></text>
                <text fill="rgb(102,102,102)" stroke="none" x="7207" y="10043">
     <tspan x="7207 7486 7702 7897 8113 8198 8392 8608 8739">Resolvers</tspan></text>
   </g>
  </g>
        <g>
   <path fill="none" stroke="rgb(68,114,196)" id="Drawing_28_Straight_Connector_45_0" stroke-width="53"
         stroke-dasharray="53,53" d="M 3875,4762 L 3833,8109"/>
            <path fill="rgb(68,114,196)" stroke="none" id="Drawing_28_Straight_Connector_45_1"
                  d="M 3830,8354 L 3710,8130 3748,8108 3831,8266 3919,8110 3955,8133 3830,8354 Z"/>
  </g>
        <g>
   <path fill="rgb(255,255,255)" stroke="none" d="M 7359,5269 L 4483,5269 4483,4195 10234,4195 10234,5269 7359,5269 Z"/>
            <path fill="none" stroke="rgb(68,114,196)" id="Drawing_29_Rectangle_47_0" stroke-width="53"
                  d="M 7359,5269 L 4483,5269 4483,4195 10234,4195 10234,5269 7359,5269 Z"/>
            <rect fill="none" stroke="none" x="4484" y="4195" width="5752" height="1075"/>
  </g>
        <g id="Drawing_30_TextBox_48">
   <rect fill="none" stroke="none" x="4686" y="4257" width="5354" height="810"/>
            <rect fill="none" stroke="none" x="4687" y="4258" width="5354" height="810"/>
            <g fill="rgb(68,114,196)" stroke="none" font-family="Helvetica, Arial, sans-serif" font-size="388" font-style="normal"
               font-weight="400">
    <text x="4936" y="4863">
     <tspan x="4936 5173 5304 5516 5711 5821 6037 6253 6358 6638 6748 7027 7133 7396 7611 7827 8043 8128 8344 8560 8666 8949 9161 9377 9593">Trusted DID Enabled Nodes</tspan></text>
   </g>
  </g>
        <g>
   <path fill="none" stroke="rgb(118,113,113)" id="Drawing_31_Oval_50_0" stroke-width="53"
         d="M 5770,6070 C 5873,6070 5953,6149 5953,6252 5953,6355 5873,6435 5770,6435 5667,6435 5588,6355 5588,6252 5588,6149 5667,6070 5770,6070 Z"/>
            <rect fill="none" stroke="none" x="5589" y="6071" width="366" height="366"/>
  </g>
        <g>
   <path fill="rgb(242,242,242)" stroke="none"
         d="M 6224,12531 L 1740,12531 1740,10847 10708,10847 10708,12531 6224,12531 Z"/>
            <path fill="none" stroke="rgb(118,113,113)" id="Drawing_32_Rectangle_51_0" stroke-width="35"
                  d="M 6224,12531 L 1740,12531 1740,10847 10708,10847 10708,12531 6224,12531 Z"/>
            <rect fill="none" stroke="none" x="1740" y="10847" width="8969" height="1685"/>
  </g>
        <g id="Drawing_33_TextBox_52">
   <rect fill="none" stroke="none" x="3198" y="11295" width="5772" height="810"/>
            <rect fill="none" stroke="none" x="3199" y="11296" width="5772" height="810"/>
            <g fill="rgb(102,102,102)" stroke="none" font-family="Helvetica, Arial, sans-serif" font-size="388"
               font-style="normal" font-weight="400">
    <text x="4456" y="11901">
     <tspan x="4456 4735 4951 5040 5231 5447 5578 5773 5988 6073 6179 6463 6679 6869 7085 7174 7369 7584">Universal Resolver</tspan></text>
   </g>
  </g>
        <g>
   <path fill="none" stroke="rgb(118,113,113)" id="Drawing_34_Straight_Connector_53_0" stroke-width="53"
         stroke-dasharray="53,53" d="M 3833,10280 L 3829,10601"/>
            <path fill="rgb(118,113,113)" stroke="none" id="Drawing_34_Straight_Connector_53_1"
                  d="M 3836,10035 L 3956,10259 3918,10281 3835,10123 3747,10279 3711,10256 3836,10035 Z"/>
            <path fill="rgb(118,113,113)" stroke="none" id="Drawing_34_Straight_Connector_53_2"
                  d="M 3826,10846 L 3706,10622 3744,10600 3827,10758 3915,10602 3951,10625 3826,10846 Z"/>
  </g>
        <g>
   <path fill="none" stroke="rgb(118,113,113)" id="Drawing_35_Oval_56_0" stroke-width="53"
         d="M 7058,2248 C 7161,2248 7241,2327 7241,2430 7241,2533 7161,2613 7058,2613 6955,2613 6876,2533 6876,2430 6876,2327 6955,2248 7058,2248 Z"/>
            <rect fill="none" stroke="none" x="6877" y="2249" width="366" height="366"/>
  </g>
        <g>
   <path fill="none" stroke="rgb(118,113,113)" id="Drawing_36_Oval_57_0" stroke-width="53"
         d="M 4819,3209 C 4922,3209 5002,3288 5002,3391 5002,3494 4922,3574 4819,3574 4716,3574 4637,3494 4637,3391 4637,3288 4716,3209 4819,3209 Z"/>
            <rect fill="none" stroke="none" x="4638" y="3210" width="366" height="366"/>
  </g>
        <g>
   <path fill="none" stroke="rgb(118,113,113)" id="Drawing_37_Oval_58_0" stroke-width="53"
         d="M 2581,4389 C 2684,4389 2764,4468 2764,4571 2764,4674 2684,4754 2581,4754 2478,4754 2399,4674 2399,4571 2399,4468 2478,4389 2581,4389 Z"/>
            <rect fill="none" stroke="none" x="2400" y="4390" width="366" height="366"/>
  </g>
        <g>
   <path fill="none" stroke="rgb(118,113,113)" id="Drawing_38_Oval_59_0" stroke-width="53"
         d="M 3004,2883 C 3107,2883 3187,2962 3187,3065 3187,3168 3107,3248 3004,3248 2901,3248 2822,3168 2822,3065 2822,2962 2901,2883 3004,2883 Z"/>
            <rect fill="none" stroke="none" x="2823" y="2884" width="366" height="366"/>
  </g>
        <g>
   <path fill="none" stroke="rgb(118,113,113)" id="Drawing_39_Oval_60_0" stroke-width="53"
         d="M 4893,6090 C 4996,6090 5076,6169 5076,6272 5076,6375 4996,6455 4893,6455 4790,6455 4711,6375 4711,6272 4711,6169 4790,6090 4893,6090 Z"/>
            <rect fill="none" stroke="none" x="4712" y="6091" width="366" height="366"/>
  </g>
        <g>
   <path fill="none" stroke="rgb(118,113,113)" id="Drawing_40_Oval_61_0" stroke-width="53"
         d="M 5487,2142 C 5590,2142 5670,2221 5670,2324 5670,2427 5590,2507 5487,2507 5384,2507 5305,2427 5305,2324 5305,2221 5384,2142 5487,2142 Z"/>
            <rect fill="none" stroke="none" x="5306" y="2143" width="366" height="366"/>
  </g>
        <g>
   <path fill="none" stroke="rgb(118,113,113)" id="Drawing_41_Oval_62_0" stroke-width="53"
         d="M 3834,2785 C 3937,2785 4017,2864 4017,2967 4017,3070 3937,3150 3834,3150 3731,3150 3652,3070 3652,2967 3652,2864 3731,2785 3834,2785 Z"/>
            <rect fill="none" stroke="none" x="3653" y="2786" width="366" height="366"/>
  </g>
        <g>
   <path fill="none" stroke="rgb(118,113,113)" id="Drawing_42_Oval_63_0" stroke-width="53"
         d="M 4477,1645 C 4580,1645 4660,1724 4660,1827 4660,1930 4580,2010 4477,2010 4374,2010 4295,1930 4295,1827 4295,1724 4374,1645 4477,1645 Z"/>
            <rect fill="none" stroke="none" x="4296" y="1646" width="366" height="366"/>
  </g>
        <g>
   <path fill="none" stroke="rgb(118,113,113)" id="Drawing_43_Oval_64_0" stroke-width="53"
         d="M 5145,1458 C 5248,1458 5328,1537 5328,1640 5328,1743 5248,1823 5145,1823 5042,1823 4963,1743 4963,1640 4963,1537 5042,1458 5145,1458 Z"/>
            <rect fill="none" stroke="none" x="4964" y="1459" width="366" height="366"/>
  </g>
        <g>
   <path fill="none" stroke="rgb(118,113,113)" id="Drawing_44_Oval_65_0" stroke-width="53"
         d="M 6325,1882 C 6428,1882 6508,1961 6508,2064 6508,2167 6428,2247 6325,2247 6222,2247 6143,2167 6143,2064 6143,1961 6222,1882 6325,1882 Z"/>
            <rect fill="none" stroke="none" x="6144" y="1883" width="366" height="366"/>
  </g>
        <g>
   <path fill="none" stroke="rgb(118,113,113)" id="Drawing_45_Oval_66_0" stroke-width="53"
         d="M 3598,2036 C 3701,2036 3781,2115 3781,2218 3781,2321 3701,2401 3598,2401 3495,2401 3416,2321 3416,2218 3416,2115 3495,2036 3598,2036 Z"/>
            <rect fill="none" stroke="none" x="3417" y="2037" width="366" height="366"/>
  </g>
        <g>
   <path fill="none" stroke="rgb(118,113,113)" id="Drawing_46_Oval_67_0" stroke-width="53"
         d="M 6749,1426 C 6852,1426 6932,1505 6932,1608 6932,1711 6852,1791 6749,1791 6646,1791 6567,1711 6567,1608 6567,1505 6646,1426 6749,1426 Z"/>
            <rect fill="none" stroke="none" x="6568" y="1427" width="366" height="366"/>
  </g>
        <g>
   <path fill="none" stroke="rgb(118,113,113)" id="Drawing_47_Oval_68_0" stroke-width="53"
         d="M 5992,1279 C 6095,1279 6175,1358 6175,1461 6175,1564 6095,1644 5992,1644 5889,1644 5810,1564 5810,1461 5810,1358 5889,1279 5992,1279 Z"/>
            <rect fill="none" stroke="none" x="5811" y="1280" width="366" height="366"/>
  </g>
        <g>
   <path fill="none" stroke="rgb(118,113,113)" id="Drawing_48_Oval_69_0" stroke-width="53"
         d="M 3069,1702 C 3172,1702 3252,1781 3252,1884 3252,1987 3172,2067 3069,2067 2966,2067 2887,1987 2887,1884 2887,1781 2966,1702 3069,1702 Z"/>
            <rect fill="none" stroke="none" x="2888" y="1703" width="366" height="366"/>
  </g>
        <g>
   <path fill="none" stroke="rgb(68,114,196)" id="Drawing_49_Straight_Connector_54_0" stroke-width="53"
         stroke-dasharray="53,53" d="M 13823,3712 L 7095,3712"/>
            <path fill="rgb(68,114,196)" stroke="none" id="Drawing_49_Straight_Connector_54_1"
                  d="M 6850,3712 L 7073,3590 7095,3627 6938,3712 7095,3798 7073,3835 6850,3712 Z"/>
  </g>
        <g id="Drawing_50">
   <rect fill="none" stroke="none" x="8839" y="3010" width="5117" height="633"/>
            <rect fill="none" stroke="none" x="8839" y="3010" width="5117" height="633"/>
            <g fill="rgb(0,132,209)" stroke="none" font-family="Helvetica, Arial, sans-serif" font-size="318" font-style="italic"
               font-weight="400">
    <text x="9092" y="3453">
     <tspan x="9092 9321 9426 9604 9782 9871 10045 10133 10222 10451 10629 10807 10984 11073 11247 11336 11425 11653 11831 11903 12081 12170 12343 12432 12521 12750 12927 13088 13262 13423 13601">Create, Update, Delete, Recover</tspan></text>
   </g>
  </g>
        <g id="Drawing_51">
   <rect fill="none" stroke="none" x="2779" y="7437" width="1015" height="633"/>
            <rect fill="none" stroke="none" x="2779" y="7437" width="1015" height="633"/>
            <g fill="rgb(0,132,209)" stroke="none" font-family="Helvetica, Arial, sans-serif" font-size="318" font-style="italic"
               font-weight="400">
    <text x="3029" y="7880">
     <tspan x="3029 3275 3452">Get</tspan></text>
   </g>
  </g>
 </g>
</svg>
