<svg xmlns="http://www.w3.org/2000/svg" xmlns:xlink="http://www.w3.org/1999/xlink" xmlns:lucid="lucid" width="1050" height="339"><g transform="translate(-80 -80)" lucid:page-tab-id="0_0"><path d="M540 100h570v299H540z" stroke="#666" stroke-width="2" fill="#fff" fill-opacity=".5"/><use xlink:href="#a" transform="matrix(1,0,0,1,545,105) translate(0 14.4)"/><use xlink:href="#b" transform="matrix(1,0,0,1,545,105) translate(53.900000000000006 14.4)"/><path d="M750 219c0 11.05-8.95 20-20 20s-20-8.95-20-20 8.95-20 20-20 20 8.95 20 20z" stroke="#0c7cba" stroke-width="3" fill="#c1e4f7"/><path d="M930 279c0 11.05-8.95 20-20 20s-20-8.95-20-20 8.95-20 20-20 20 8.95 20 20zM900 359c0 11.05-8.95 20-20 20s-20-8.95-20-20 8.95-20 20-20 20 8.95 20 20zM810 199c0 11.05-8.95 20-20 20s-20-8.95-20-20 8.95-20 20-20 20 8.95 20 20z" stroke="#ccc" stroke-width="2" fill="#fff"/><path d="M730 359c0 11.05-8.95 20-20 20s-20-8.95-20-20 8.95-20 20-20 20 8.95 20 20z" stroke="#834187" stroke-width="2" fill="#f9d2de"/><path d="M870 279c0 11.05-8.95 20-20 20s-20-8.95-20-20 8.95-20 20-20 20 8.95 20 20z" stroke="#0c7cba" stroke-width="3" fill="#c1e4f7"/><path d="M640 359c0 11.05-8.95 20-20 20s-20-8.95-20-20 8.95-20 20-20 20 8.95 20 20zM1010 339c0 11.05-8.95 20-20 20s-20-8.95-20-20 8.95-20 20-20 20 8.95 20 20zM1030 259c0 11.05-8.95 20-20 20s-20-8.95-20-20 8.95-20 20-20 20 8.95 20 20zM1070 179c0 11.05-8.95 20-20 20s-20-8.95-20-20 8.95-20 20-20 20 8.95 20 20zM1080 300c0 11.05-8.95 20-20 20s-20-8.95-20-20 8.95-20 20-20 20 8.95 20 20z" stroke="#ccc" stroke-width="2" fill="#fff"/><path d="M910 139c0 11.05-8.95 20-20 20s-20-8.95-20-20 8.95-20 20-20 20 8.95 20 20z" stroke="#0c7cba" stroke-width="3" fill="#c1e4f7"/><path d="M805 339c0 11.05-8.95 20-20 20s-20-8.95-20-20 8.95-20 20-20 20 8.95 20 20z" stroke="#ccc" stroke-width="2" fill="#fff"/><path d="M827.5 280l-14.72.08v-2l14.7-.08zm-96.44-37.24l.15 2.06.25 1.88.3 1.74.4 1.62.42 1.5.5 1.44.54 1.36.6 1.3.65 1.22.7 1.2.76 1.15.6.8h-2.46l-.6-.9-.74-1.27-.7-1.33-.63-1.38-.58-1.45-.53-1.53-.47-1.6-.4-1.73-.32-1.84-.26-1.98-.16-2.16-.03-1.33 2-.05z" fill="#0c7cba"/><path d="M729.93 240.5l1.07-.03.03 1.03-2 .05-.03-1.16zM828.5 278.93l.03 1.07h-1.05v-2h1.13z" fill="#0c7cba"/><use xlink:href="#c" transform="matrix(1,0,0,1,685.3293361970149,260.01722942261546) translate(0 14.4)"/><use xlink:href="#d" transform="matrix(1,0,0,1,685.3293361970149,260.01722942261546) translate(38.65 14.4)"/><path d="M851.85 246.02l-.45 3.45-.3 3.8-.08 3.25-2-.05.1-3.3.3-3.9.45-3.55.18-.98h2.03zm39.12-84.5l-.08 3.32-.3 3.9-.47 3.54-.6 3.3-.72 3.07-.85 2.93-.98 2.83-1.14 2.8-1.3 2.78-1.54 2.88-1.86 3.07-2.4 3.55-3.74 4.96-12.13 15.26-2.32 3.44h-2.34l.66-1.07 2.4-3.56 12.16-15.3 3.7-4.9 2.33-3.44 1.8-3 1.5-2.77 1.25-2.7 1.1-2.7.95-2.73.82-2.83.7-2.98.58-3.18.45-3.45.3-3.8.08-3.25z" fill="#0c7cba"/><path d="M889.93 160.5l1.07-.03-.03 1.08-2-.05.03-1.1zM851 256.47v1.14l-.93-.1-1.07.03v-1.06z" fill="#0c7cba"/><use xlink:href="#c" transform="matrix(1,0,0,1,790.2438572935639,223.142937920806) translate(0 14.4)"/><use xlink:href="#d" transform="matrix(1,0,0,1,790.2438572935639,223.142937920806) translate(38.65 14.4)"/><path d="M749.83 158.64l-1.76 1.33-1.6 1.34-1.5 1.35-1.38 1.35-1.3 1.36-1.18 1.38-1.1 1.4-1.04 1.42-.97 1.46-.9 1.5-.83 1.52-.8 1.57-.7 1.64-.68 1.7-.63 1.76-.55 1.84-.5 1.94-.43 2.04-.38 2.17-.3 2.3-.2 2.45-.1 2.65v.4h-2v-.45l.1-2.72.22-2.55.3-2.38.38-2.25.45-2.13.52-2 .57-1.94.64-1.84.7-1.77.77-1.7.82-1.66.88-1.6.94-1.55 1-1.53 1.1-1.5 1.16-1.45 1.24-1.45 1.34-1.42 1.44-1.4 1.55-1.4 1.5-1.24h3.3zM867.5 140l-34 .42v-2l34-.4z" fill="#0c7cba"/><path d="M868.5 138.93l.03 1.07h-1.05l-.02-2h1.15zM731 196.48v1.13l-.93-.1-1.07.03v-1.07z" fill="#0c7cba"/><use xlink:href="#c" transform="matrix(1,0,0,1,706.0531299765786,136.9592257918775) translate(0 14.4)"/><use xlink:href="#d" transform="matrix(1,0,0,1,706.0531299765786,136.9592257918775) translate(38.65 14.4)"/><path d="M710.98 336.98l-2 .04-.04-2 2-.05zm-.5-10.1l-1.98.22-.42-3.98 2-.2zm-1.66-11.97l-1.96.38-.7-3.63h2.03zm-5.93-24.85h-2.08l-.5-1.97 1.93-.5zm-4.15-37.74l-.32 3.06-.06.9-2-.13.07-.94.32-3.1zm2.36-11.6l-.4 1.44-.56 2.4-1.94-.45.58-2.46.4-1.48zm3.82-11.26l-.1.28-1.3 3.43-1.87-.7 1.3-3.47.13-.32zm4.06-9.1l-.85 1.8-1.8-.85.84-1.82z" fill="#834187"/><path d="M711 338.12l-.96-.12-1.04.03-.02-1.04 2-.05zM708.88 215.86l-.38 3.07.04 1.22-1.38-.65 1.7-3.64z" fill="#834187"/><use xlink:href="#e" transform="matrix(1,0,0,1,656.7275737100952,290.0451342721116) translate(0 14.4)"/><path d="M959.08 221.98l3.07 7.8 2.32 5.2 1.9 3.86 1.65 3 1.45 2.4 1.3 1.97 1.2 1.66 1.1 1.4 1.03 1.18.96 1.02.9.9.87.77.83.68.8.6.75.54.75.47.72.43.7.37.7.32.7.3.67.25.68.22.67.17.67.16.68.13.7.1.7.08.5.03-.1 2-.57-.04-.8-.08-.76-.1-.77-.16-.76-.2-.76-.2-.76-.25-.76-.28-.76-.32-.77-.36-.8-.42-.78-.46-.82-.5-.83-.6-.86-.64-.87-.74-.93-.83-.97-.94-1.02-1.1-1.06-1.24-1.16-1.45-1.24-1.72-1.36-2.04-1.5-2.47-1.68-3.07-1.94-3.93-2.35-5.3-3.1-7.87-.7-2.08h2.1zm-45.96-83.9l.8.07.76.1.77.16.76.2.76.2.76.25.76.28.76.32.77.36.8.42.78.46.82.5.83.6.86.64.87.74.93.83.97.94 1.02 1.1 1.07 1.24 1.15 1.45 1.24 1.72 1.36 2.04 1.5 2.47 1.68 3.07 1.94 3.93 2.35 5.3 3.1 7.86.7 2.05h-2.12l-.46-1.36-3.07-7.8-2.32-5.2-1.9-3.86-1.65-3-1.45-2.4-1.3-1.97-1.2-1.66-1.1-1.4-1.03-1.18-.96-1.02-.9-.9-.87-.77-.83-.68-.8-.6-.75-.54-.75-.47-.72-.43-.7-.37-.7-.32-.7-.3-.67-.25-.68-.22-.67-.17-.67-.16-.68-.13-.7-.1-.7-.08-.5-.03.1-2z" fill="#999"/><path d="M912.55 138.02l-.04 2-1.1-.02.1-.93-.03-1.07zM989.12 258l-.12.96.03 1.04h-1.06v-2z" fill="#999"/><use xlink:href="#f" transform="matrix(1,0,0,1,894.5796157799995,177.38214521271868) translate(11.855000000000011 14.4)"/><use xlink:href="#g" transform="matrix(1,0,0,1,894.5796157799995,177.38214521271868) translate(68.70500000000001 14.4)"/><use xlink:href="#h" transform="matrix(1,0,0,1,894.5796157799995,177.38214521271868) translate(0.005000000000002558 36)"/><use xlink:href="#i" transform="matrix(1,0,0,1,894.5796157799995,177.38214521271868) translate(38.655 36)"/><path d="M480 299V139h40v160z" stroke="#19967d" stroke-width="2" fill="#c7e8ac" fill-opacity=".9"/><use xlink:href="#j" transform="matrix(6.123233995736766e-17,-1,1,6.123233995736766e-17,485,294) translate(31.75 18.15)"/><path d="M132 231c-17.67 0-32-14.33-32-32 0-14.14 8.66-26.06 22.1-30.43C121.34 127 174.68 119 196 135c10.67-24 64-16 64 8 32-8 64 24 42.67 64 21.33 32 0 72-42.67 56-10.67 20.8-53.33 20.8-64 0-21.33 16-64 8-64-32z" stroke="#99d2f2" stroke-width="2" fill="#c1e4f7" fill-opacity=".27"/><use xlink:href="#k" transform="matrix(1,0,0,1,105,124) translate(68.525 80.025)"/><path d="M478 220l-23.1.06v-2L478 218zm-153.53-16.4l4.72 1.32V207l-5.3-1.5-15.95-5.24.62-1.9z" fill="#19967d"/><path d="M308.6 198.37l-.63 1.9-1-.32.66-1.9zM479 220h-1.02v-2H479z" fill="#19967d"/><use xlink:href="#l" transform="matrix(1,0,0,1,329.1910166419561,195.95419903410277) translate(18.98000000000001 14.4)"/><use xlink:href="#m" transform="matrix(1,0,0,1,329.1910166419561,195.95419903410277) translate(75.83000000000001 14.4)"/><use xlink:href="#n" transform="matrix(1,0,0,1,329.1910166419561,195.95419903410277) translate(0.005000000000002558 36)"/><use xlink:href="#o" transform="matrix(1,0,0,1,329.1910166419561,195.95419903410277) translate(52.90500000000001 36)"/><path d="M660 259c0 11.05-8.95 20-20 20s-20-8.95-20-20 8.95-20 20-20 20 8.95 20 20zM640 159c0 11.05-8.95 20-20 20s-20-8.95-20-20 8.95-20 20-20 20 8.95 20 20z" stroke="#ccc" stroke-width="2" fill="#fff"/><path d="M568.85 220H522v-2h46.85zm138.65 0h-46.85v-2h46.85z" fill="#b2b2b2"/><path d="M522.03 220H521v-2h1.03zM708.5 218.93l.03 1.07h-1.06v-2h1.14z" fill="#b2b2b2"/><g><use xlink:href="#p" transform="matrix(1,0,0,1,568.8495322191329,197.4) translate(0.005000000000002558 14.4)"/><use xlink:href="#q" transform="matrix(1,0,0,1,568.8495322191329,197.4) translate(53.90500000000001 14.4)"/><use xlink:href="#r" transform="matrix(1,0,0,1,568.8495322191329,197.4) translate(12.955000000000005 36)"/></g><defs><path fill="#666" d="M212-179c-10-28-35-45-73-45-59 0-87 40-87 99 0 60 29 101 89 101 43 0 62-24 78-52l27 14C228-24 195 4 139 4 59 4 22-46 18-125c-6-104 99-153 187-111 19 9 31 26 39 46" id="s"/><path fill="#666" d="M100-194c62-1 85 37 85 99 1 63-27 99-86 99S16-35 15-95c0-66 28-99 85-99zM99-20c44 1 53-31 53-75 0-43-8-75-51-75s-53 32-53 75 10 74 51 75" id="t"/><path fill="#666" d="M114-163C36-179 61-72 57 0H25l-1-190h30c1 12-1 29 2 39 6-27 23-49 58-41v29" id="u"/><path fill="#666" d="M85-194c31 0 48 13 60 33l-1-100h32l1 261h-30c-2-10 0-23-3-31C134-8 116 4 85 4 32 4 16-35 15-94c0-66 23-100 70-100zm9 24c-40 0-46 34-46 75 0 40 6 74 45 74 42 0 51-32 51-76 0-42-9-74-50-73" id="v"/><path fill="#666" d="M141-36C126-15 110 5 73 4 37 3 15-17 15-53c-1-64 63-63 125-63 3-35-9-54-41-54-24 1-41 7-42 31l-33-3c5-37 33-52 76-52 45 0 72 20 72 64v82c-1 20 7 32 28 27v20c-31 9-61-2-59-35zM48-53c0 20 12 33 32 33 41-3 63-29 60-74-43 2-92-5-92 41" id="w"/><g id="a"><use transform="matrix(0.05,0,0,0.05,0,0)" xlink:href="#s"/><use transform="matrix(0.05,0,0,0.05,12.950000000000001,0)" xlink:href="#t"/><use transform="matrix(0.05,0,0,0.05,22.950000000000003,0)" xlink:href="#u"/><use transform="matrix(0.05,0,0,0.05,28.900000000000002,0)" xlink:href="#v"/><use transform="matrix(0.05,0,0,0.05,38.900000000000006,0)" xlink:href="#w"/></g><path fill="#666" d="M190 0L58-211 59 0H30v-248h39L202-35l-2-213h31V0h-41" id="x"/><path fill="#666" d="M100-194c63 0 86 42 84 106H49c0 40 14 67 53 68 26 1 43-12 49-29l28 8c-11 28-37 45-77 45C44 4 14-33 15-96c1-61 26-98 85-98zm52 81c6-60-76-77-97-28-3 7-6 17-6 28h103" id="y"/><path fill="#666" d="M59-47c-2 24 18 29 38 22v24C64 9 27 4 27-40v-127H5v-23h24l9-43h21v43h35v23H59v120" id="z"/><path fill="#666" d="M206 0h-36l-40-164L89 0H53L-1-190h32L70-26l43-164h34l41 164 42-164h31" id="A"/><path fill="#666" d="M143 0L79-87 56-68V0H24v-261h32v163l83-92h37l-77 82L181 0h-38" id="B"/><g id="b"><use transform="matrix(0.05,0,0,0.05,0,0)" xlink:href="#x"/><use transform="matrix(0.05,0,0,0.05,12.950000000000001,0)" xlink:href="#y"/><use transform="matrix(0.05,0,0,0.05,22.950000000000003,0)" xlink:href="#z"/><use transform="matrix(0.05,0,0,0.05,27.950000000000003,0)" xlink:href="#A"/><use transform="matrix(0.05,0,0,0.05,40.900000000000006,0)" xlink:href="#t"/><use transform="matrix(0.05,0,0,0.05,50.900000000000006,0)" xlink:href="#u"/><use transform="matrix(0.05,0,0,0.05,56.85,0)" xlink:href="#B"/></g><path fill="#0c7cba" d="M30-248c87 1 191-15 191 75 0 78-77 80-158 76V0H30v-248zm33 125c57 0 124 11 124-50 0-59-68-47-124-48v98" id="C"/><path fill="#0c7cba" d="M101-251c82-7 93 87 43 132L82-64C71-53 59-42 53-27h129V0H18c2-99 128-94 128-182 0-28-16-43-45-43s-46 15-49 41l-32-3c6-41 34-60 81-64" id="D"/><g id="c"><use transform="matrix(0.05,0,0,0.05,0,0)" xlink:href="#C"/><use transform="matrix(0.05,0,0,0.05,12,0)" xlink:href="#D"/><use transform="matrix(0.05,0,0,0.05,22,0)" xlink:href="#C"/></g><path fill="#0c7cba" d="M233-177c-1 41-23 64-60 70L243 0h-38l-65-103H63V0H30v-248c88 3 205-21 203 71zM63-129c60-2 137 13 137-47 0-61-80-42-137-45v92" id="E"/><path fill="#0c7cba" d="M100-194c63 0 86 42 84 106H49c0 40 14 67 53 68 26 1 43-12 49-29l28 8c-11 28-37 45-77 45C44 4 14-33 15-96c1-61 26-98 85-98zm52 81c6-60-76-77-97-28-3 7-6 17-6 28h103" id="F"/><path fill="#0c7cba" d="M115-194c55 1 70 41 70 98S169 2 115 4C84 4 66-9 55-30l1 105H24l-1-265h31l2 30c10-21 28-34 59-34zm-8 174c40 0 45-34 45-75s-6-73-45-74c-42 0-51 32-51 76 0 43 10 73 51 73" id="G"/><path fill="#0c7cba" d="M24 0v-261h32V0H24" id="H"/><path fill="#0c7cba" d="M24-231v-30h32v30H24zM24 0v-190h32V0H24" id="I"/><path fill="#0c7cba" d="M96-169c-40 0-48 33-48 73s9 75 48 75c24 0 41-14 43-38l32 2c-6 37-31 61-74 61-59 0-76-41-82-99-10-93 101-131 147-64 4 7 5 14 7 22l-32 3c-4-21-16-35-41-35" id="J"/><path fill="#0c7cba" d="M141-36C126-15 110 5 73 4 37 3 15-17 15-53c-1-64 63-63 125-63 3-35-9-54-41-54-24 1-41 7-42 31l-33-3c5-37 33-52 76-52 45 0 72 20 72 64v82c-1 20 7 32 28 27v20c-31 9-61-2-59-35zM48-53c0 20 12 33 32 33 41-3 63-29 60-74-43 2-92-5-92 41" id="K"/><path fill="#0c7cba" d="M59-47c-2 24 18 29 38 22v24C64 9 27 4 27-40v-127H5v-23h24l9-43h21v43h35v23H59v120" id="L"/><path fill="#0c7cba" d="M100-194c62-1 85 37 85 99 1 63-27 99-86 99S16-35 15-95c0-66 28-99 85-99zM99-20c44 1 53-31 53-75 0-43-8-75-51-75s-53 32-53 75 10 74 51 75" id="M"/><path fill="#0c7cba" d="M117-194c89-4 53 116 60 194h-32v-121c0-31-8-49-39-48C34-167 62-67 57 0H25l-1-190h30c1 10-1 24 2 32 11-22 29-35 61-36" id="N"/><g id="d"><use transform="matrix(0.05,0,0,0.05,0,0)" xlink:href="#E"/><use transform="matrix(0.05,0,0,0.05,12.950000000000001,0)" xlink:href="#F"/><use transform="matrix(0.05,0,0,0.05,22.950000000000003,0)" xlink:href="#G"/><use transform="matrix(0.05,0,0,0.05,32.95,0)" xlink:href="#H"/><use transform="matrix(0.05,0,0,0.05,36.900000000000006,0)" xlink:href="#I"/><use transform="matrix(0.05,0,0,0.05,40.85000000000001,0)" xlink:href="#J"/><use transform="matrix(0.05,0,0,0.05,49.85000000000001,0)" xlink:href="#K"/><use transform="matrix(0.05,0,0,0.05,59.85,0)" xlink:href="#L"/><use transform="matrix(0.05,0,0,0.05,64.85000000000001,0)" xlink:href="#I"/><use transform="matrix(0.05,0,0,0.05,68.80000000000001,0)" xlink:href="#M"/><use transform="matrix(0.05,0,0,0.05,78.80000000000001,0)" xlink:href="#N"/></g><path fill="#834187" d="M190 0L58-211 59 0H30v-248h39L202-35l-2-213h31V0h-41" id="O"/><path fill="#834187" d="M100-194c62-1 85 37 85 99 1 63-27 99-86 99S16-35 15-95c0-66 28-99 85-99zM99-20c44 1 53-31 53-75 0-43-8-75-51-75s-53 32-53 75 10 74 51 75" id="P"/><path fill="#834187" d="M59-47c-2 24 18 29 38 22v24C64 9 27 4 27-40v-127H5v-23h24l9-43h21v43h35v23H59v120" id="Q"/><path fill="#834187" d="M141-36C126-15 110 5 73 4 37 3 15-17 15-53c-1-64 63-63 125-63 3-35-9-54-41-54-24 1-41 7-42 31l-33-3c5-37 33-52 76-52 45 0 72 20 72 64v82c-1 20 7 32 28 27v20c-31 9-61-2-59-35zM48-53c0 20 12 33 32 33 41-3 63-29 60-74-43 2-92-5-92 41" id="R"/><path fill="#834187" d="M114-163C36-179 61-72 57 0H25l-1-190h30c1 12-1 29 2 39 6-27 23-49 58-41v29" id="S"/><path fill="#834187" d="M24-231v-30h32v30H24zM24 0v-190h32V0H24" id="T"/><path fill="#834187" d="M135-143c-3-34-86-38-87 0 15 53 115 12 119 90S17 21 10-45l28-5c4 36 97 45 98 0-10-56-113-15-118-90-4-57 82-63 122-42 12 7 21 19 24 35" id="U"/><path fill="#834187" d="M117-194c89-4 53 116 60 194h-32v-121c0-31-8-49-39-48C34-167 62-67 57 0H25l-1-190h30c1 10-1 24 2 32 11-22 29-35 61-36" id="V"/><g id="e"><use transform="matrix(0.05,0,0,0.05,0,0)" xlink:href="#O"/><use transform="matrix(0.05,0,0,0.05,12.950000000000001,0)" xlink:href="#P"/><use transform="matrix(0.05,0,0,0.05,22.950000000000003,0)" xlink:href="#Q"/><use transform="matrix(0.05,0,0,0.05,27.950000000000003,0)" xlink:href="#R"/><use transform="matrix(0.05,0,0,0.05,37.95,0)" xlink:href="#S"/><use transform="matrix(0.05,0,0,0.05,43.900000000000006,0)" xlink:href="#T"/><use transform="matrix(0.05,0,0,0.05,47.85000000000001,0)" xlink:href="#U"/><use transform="matrix(0.05,0,0,0.05,56.85,0)" xlink:href="#R"/><use transform="matrix(0.05,0,0,0.05,66.85000000000001,0)" xlink:href="#Q"/><use transform="matrix(0.05,0,0,0.05,71.85000000000001,0)" xlink:href="#T"/><use transform="matrix(0.05,0,0,0.05,75.80000000000001,0)" xlink:href="#P"/><use transform="matrix(0.05,0,0,0.05,85.80000000000001,0)" xlink:href="#V"/></g><path fill="#333" d="M67-125c0 53 21 87 73 88 37 1 54-22 65-47l45 17C233-25 199 4 140 4 58 4 20-42 15-125 8-235 124-281 211-232c18 10 29 29 36 50l-46 12c-8-25-30-41-62-41-52 0-71 34-72 86" id="W"/><path fill="#333" d="M110-194c64 0 96 36 96 99 0 64-35 99-97 99-61 0-95-36-95-99 0-62 34-99 96-99zm-1 164c35 0 45-28 45-65 0-40-10-65-43-65-34 0-45 26-45 65 0 36 10 65 43 65" id="X"/><path fill="#333" d="M135-150c-39-12-60 13-60 57V0H25l-1-190h47c2 13-1 29 3 40 6-28 27-53 61-41v41" id="Y"/><path fill="#333" d="M88-194c31-1 46 15 58 34l-1-101h50l1 261h-48c-2-10 0-23-3-31C134-8 116 4 84 4 32 4 16-41 15-95c0-56 19-97 73-99zm17 164c33 0 40-30 41-66 1-37-9-64-41-64s-38 30-39 65c0 43 13 65 39 65" id="Z"/><path fill="#333" d="M133-34C117-15 103 5 69 4 32 3 11-16 11-54c-1-60 55-63 116-61 1-26-3-47-28-47-18 1-26 9-28 27l-52-2c7-38 36-58 82-57s74 22 75 68l1 82c-1 14 12 18 25 15v27c-30 8-71 5-69-32zm-48 3c29 0 43-24 42-57-32 0-66-3-65 30 0 17 8 27 23 27" id="aa"/><g id="f"><use transform="matrix(0.05,0,0,0.05,0,0)" xlink:href="#W"/><use transform="matrix(0.05,0,0,0.05,12.950000000000001,0)" xlink:href="#X"/><use transform="matrix(0.05,0,0,0.05,23.900000000000002,0)" xlink:href="#Y"/><use transform="matrix(0.05,0,0,0.05,30.900000000000002,0)" xlink:href="#Z"/><use transform="matrix(0.05,0,0,0.05,41.85,0)" xlink:href="#aa"/></g><path fill="#333" d="M24-248c120-7 223 5 221 122C244-46 201 0 124 0H24v-248zM76-40c74 7 117-18 117-86 0-67-45-88-117-82v168" id="ab"/><path fill="#333" d="M24 0v-248h52V0H24" id="ac"/><g id="g"><use transform="matrix(0.05,0,0,0.05,0,0)" xlink:href="#ab"/><use transform="matrix(0.05,0,0,0.05,12.950000000000001,0)" xlink:href="#ac"/><use transform="matrix(0.05,0,0,0.05,17.950000000000003,0)" xlink:href="#ab"/></g><path fill="#333" d="M24-248c93 1 206-16 204 79-1 75-69 88-152 82V0H24v-248zm52 121c47 0 100 7 100-41 0-47-54-39-100-39v80" id="ad"/><path fill="#333" d="M182-182c0 78-84 86-111 141h115V0H12c-6-101 99-100 120-180 1-22-12-31-33-32-23 0-32 14-35 34l-49-3c5-45 32-70 84-70 51 0 83 22 83 69" id="ae"/><g id="h"><use transform="matrix(0.05,0,0,0.05,0,0)" xlink:href="#ad"/><use transform="matrix(0.05,0,0,0.05,12,0)" xlink:href="#ae"/><use transform="matrix(0.05,0,0,0.05,22,0)" xlink:href="#ad"/></g><path fill="#333" d="M115-3C79 11 28 4 28-45v-112H4v-33h27l15-45h31v45h36v33H77v99c-1 23 16 31 38 25v30" id="af"/><path fill="#333" d="M190-63c-7 42-38 67-86 67-59 0-84-38-90-98-12-110 154-137 174-36l-49 2c-2-19-15-32-35-32-30 0-35 28-38 64-6 74 65 87 74 30" id="ag"/><path fill="#333" d="M25 0v-261h50V0H25" id="ah"/><g id="i"><use transform="matrix(0.05,0,0,0.05,0,0)" xlink:href="#ad"/><use transform="matrix(0.05,0,0,0.05,12,0)" xlink:href="#Y"/><use transform="matrix(0.05,0,0,0.05,19,0)" xlink:href="#X"/><use transform="matrix(0.05,0,0,0.05,29.950000000000003,0)" xlink:href="#af"/><use transform="matrix(0.05,0,0,0.05,35.900000000000006,0)" xlink:href="#X"/><use transform="matrix(0.05,0,0,0.05,46.85000000000001,0)" xlink:href="#ag"/><use transform="matrix(0.05,0,0,0.05,56.85,0)" xlink:href="#X"/><use transform="matrix(0.05,0,0,0.05,67.80000000000001,0)" xlink:href="#ah"/></g><path fill="#19967d" d="M266 0h-40l-56-210L115 0H75L2-248h35L96-30l15-64 43-154h32l59 218 59-218h35" id="ai"/><path fill="#19967d" d="M100-194c63 0 86 42 84 106H49c0 40 14 67 53 68 26 1 43-12 49-29l28 8c-11 28-37 45-77 45C44 4 14-33 15-96c1-61 26-98 85-98zm52 81c6-60-76-77-97-28-3 7-6 17-6 28h103" id="aj"/><path fill="#19967d" d="M115-194c53 0 69 39 70 98 0 66-23 100-70 100C84 3 66-7 56-30L54 0H23l1-261h32v101c10-23 28-34 59-34zm-8 174c40 0 45-34 45-75 0-40-5-75-45-74-42 0-51 32-51 76 0 43 10 73 51 73" id="ak"/><path fill="#19967d" d="M135-143c-3-34-86-38-87 0 15 53 115 12 119 90S17 21 10-45l28-5c4 36 97 45 98 0-10-56-113-15-118-90-4-57 82-63 122-42 12 7 21 19 24 35" id="al"/><path fill="#19967d" d="M114-163C36-179 61-72 57 0H25l-1-190h30c1 12-1 29 2 39 6-27 23-49 58-41v29" id="am"/><path fill="#19967d" d="M108 0H70L1-190h34L89-25l56-165h34" id="an"/><g id="j"><use transform="matrix(0.05,0,0,0.05,0,0)" xlink:href="#ai"/><use transform="matrix(0.05,0,0,0.05,16.599999999999998,0)" xlink:href="#aj"/><use transform="matrix(0.05,0,0,0.05,26.599999999999994,0)" xlink:href="#ak"/><use transform="matrix(0.05,0,0,0.05,36.599999999999994,0)" xlink:href="#al"/><use transform="matrix(0.05,0,0,0.05,45.599999999999994,0)" xlink:href="#aj"/><use transform="matrix(0.05,0,0,0.05,55.599999999999994,0)" xlink:href="#am"/><use transform="matrix(0.05,0,0,0.05,61.54999999999999,0)" xlink:href="#an"/><use transform="matrix(0.05,0,0,0.05,70.55,0)" xlink:href="#aj"/><use transform="matrix(0.05,0,0,0.05,80.55,0)" xlink:href="#am"/></g><path fill="#83bbe5" d="M33 0v-248h34V0H33" id="ao"/><path fill="#83bbe5" d="M117-194c89-4 53 116 60 194h-32v-121c0-31-8-49-39-48C34-167 62-67 57 0H25l-1-190h30c1 10-1 24 2 32 11-22 29-35 61-36" id="ap"/><path fill="#83bbe5" d="M59-47c-2 24 18 29 38 22v24C64 9 27 4 27-40v-127H5v-23h24l9-43h21v43h35v23H59v120" id="aq"/><path fill="#83bbe5" d="M100-194c63 0 86 42 84 106H49c0 40 14 67 53 68 26 1 43-12 49-29l28 8c-11 28-37 45-77 45C44 4 14-33 15-96c1-61 26-98 85-98zm52 81c6-60-76-77-97-28-3 7-6 17-6 28h103" id="ar"/><path fill="#83bbe5" d="M114-163C36-179 61-72 57 0H25l-1-190h30c1 12-1 29 2 39 6-27 23-49 58-41v29" id="as"/><g id="k"><use transform="matrix(0.05,0,0,0.05,0,0)" xlink:href="#ao"/><use transform="matrix(0.05,0,0,0.05,5,0)" xlink:href="#ap"/><use transform="matrix(0.05,0,0,0.05,15,0)" xlink:href="#aq"/><use transform="matrix(0.05,0,0,0.05,20,0)" xlink:href="#ar"/><use transform="matrix(0.05,0,0,0.05,30,0)" xlink:href="#as"/><use transform="matrix(0.05,0,0,0.05,35.95,0)" xlink:href="#ap"/><use transform="matrix(0.05,0,0,0.05,45.95,0)" xlink:href="#ar"/><use transform="matrix(0.05,0,0,0.05,55.95,0)" xlink:href="#aq"/></g><path fill="#19967d" d="M67-125c0 53 21 87 73 88 37 1 54-22 65-47l45 17C233-25 199 4 140 4 58 4 20-42 15-125 8-235 124-281 211-232c18 10 29 29 36 50l-46 12c-8-25-30-41-62-41-52 0-71 34-72 86" id="at"/><path fill="#19967d" d="M110-194c64 0 96 36 96 99 0 64-35 99-97 99-61 0-95-36-95-99 0-62 34-99 96-99zm-1 164c35 0 45-28 45-65 0-40-10-65-43-65-34 0-45 26-45 65 0 36 10 65 43 65" id="au"/><path fill="#19967d" d="M135-150c-39-12-60 13-60 57V0H25l-1-190h47c2 13-1 29 3 40 6-28 27-53 61-41v41" id="av"/><path fill="#19967d" d="M88-194c31-1 46 15 58 34l-1-101h50l1 261h-48c-2-10 0-23-3-31C134-8 116 4 84 4 32 4 16-41 15-95c0-56 19-97 73-99zm17 164c33 0 40-30 41-66 1-37-9-64-41-64s-38 30-39 65c0 43 13 65 39 65" id="aw"/><path fill="#19967d" d="M133-34C117-15 103 5 69 4 32 3 11-16 11-54c-1-60 55-63 116-61 1-26-3-47-28-47-18 1-26 9-28 27l-52-2c7-38 36-58 82-57s74 22 75 68l1 82c-1 14 12 18 25 15v27c-30 8-71 5-69-32zm-48 3c29 0 43-24 42-57-32 0-66-3-65 30 0 17 8 27 23 27" id="ax"/><g id="l"><use transform="matrix(0.05,0,0,0.05,0,0)" xlink:href="#at"/><use transform="matrix(0.05,0,0,0.05,12.950000000000001,0)" xlink:href="#au"/><use transform="matrix(0.05,0,0,0.05,23.900000000000002,0)" xlink:href="#av"/><use transform="matrix(0.05,0,0,0.05,30.900000000000002,0)" xlink:href="#aw"/><use transform="matrix(0.05,0,0,0.05,41.85,0)" xlink:href="#ax"/></g><path fill="#19967d" d="M24-248c120-7 223 5 221 122C244-46 201 0 124 0H24v-248zM76-40c74 7 117-18 117-86 0-67-45-88-117-82v168" id="ay"/><path fill="#19967d" d="M24 0v-248h52V0H24" id="az"/><g id="m"><use transform="matrix(0.05,0,0,0.05,0,0)" xlink:href="#ay"/><use transform="matrix(0.05,0,0,0.05,12.950000000000001,0)" xlink:href="#az"/><use transform="matrix(0.05,0,0,0.05,17.950000000000003,0)" xlink:href="#ay"/></g><path fill="#19967d" d="M240-174c0 40-23 61-54 70L253 0h-59l-57-94H76V0H24v-248c93 4 217-23 216 74zM76-134c48-2 112 12 112-38 0-48-66-32-112-35v73" id="aA"/><path fill="#19967d" d="M24 0v-248h195v40H76v63h132v40H76v65h150V0H24" id="aB"/><path fill="#19967d" d="M169-182c-1-43-94-46-97-3 18 66 151 10 154 114 3 95-165 93-204 36-6-8-10-19-12-30l50-8c3 46 112 56 116 5-17-69-150-10-154-114-4-87 153-88 188-35 5 8 8 18 10 28" id="aC"/><path fill="#19967d" d="M136-208V0H84v-208H4v-40h212v40h-80" id="aD"/><g id="n"><use transform="matrix(0.05,0,0,0.05,0,0)" xlink:href="#aA"/><use transform="matrix(0.05,0,0,0.05,12.950000000000001,0)" xlink:href="#aB"/><use transform="matrix(0.05,0,0,0.05,24.950000000000003,0)" xlink:href="#aC"/><use transform="matrix(0.05,0,0,0.05,36.95,0)" xlink:href="#aD"/></g><path fill="#19967d" d="M24-248c93 1 206-16 204 79-1 75-69 88-152 82V0H24v-248zm52 121c47 0 100 7 100-41 0-47-54-39-100-39v80" id="aE"/><path fill="#19967d" d="M115-3C79 11 28 4 28-45v-112H4v-33h27l15-45h31v45h36v33H77v99c-1 23 16 31 38 25v30" id="aF"/><path fill="#19967d" d="M190-63c-7 42-38 67-86 67-59 0-84-38-90-98-12-110 154-137 174-36l-49 2c-2-19-15-32-35-32-30 0-35 28-38 64-6 74 65 87 74 30" id="aG"/><path fill="#19967d" d="M25 0v-261h50V0H25" id="aH"/><g id="o"><use transform="matrix(0.05,0,0,0.05,0,0)" xlink:href="#aE"/><use transform="matrix(0.05,0,0,0.05,12,0)" xlink:href="#av"/><use transform="matrix(0.05,0,0,0.05,19,0)" xlink:href="#au"/><use transform="matrix(0.05,0,0,0.05,29.950000000000003,0)" xlink:href="#aF"/><use transform="matrix(0.05,0,0,0.05,35.900000000000006,0)" xlink:href="#au"/><use transform="matrix(0.05,0,0,0.05,46.85000000000001,0)" xlink:href="#aG"/><use transform="matrix(0.05,0,0,0.05,56.85,0)" xlink:href="#au"/><use transform="matrix(0.05,0,0,0.05,67.80000000000001,0)" xlink:href="#aH"/></g><path d="M212-179c-10-28-35-45-73-45-59 0-87 40-87 99 0 60 29 101 89 101 43 0 62-24 78-52l27 14C228-24 195 4 139 4 59 4 22-46 18-125c-6-104 99-153 187-111 19 9 31 26 39 46" id="aI"/><path d="M100-194c62-1 85 37 85 99 1 63-27 99-86 99S16-35 15-95c0-66 28-99 85-99zM99-20c44 1 53-31 53-75 0-43-8-75-51-75s-53 32-53 75 10 74 51 75" id="aJ"/><path d="M114-163C36-179 61-72 57 0H25l-1-190h30c1 12-1 29 2 39 6-27 23-49 58-41v29" id="aK"/><path d="M85-194c31 0 48 13 60 33l-1-100h32l1 261h-30c-2-10 0-23-3-31C134-8 116 4 85 4 32 4 16-35 15-94c0-66 23-100 70-100zm9 24c-40 0-46 34-46 75 0 40 6 74 45 74 42 0 51-32 51-76 0-42-9-74-50-73" id="aL"/><path d="M141-36C126-15 110 5 73 4 37 3 15-17 15-53c-1-64 63-63 125-63 3-35-9-54-41-54-24 1-41 7-42 31l-33-3c5-37 33-52 76-52 45 0 72 20 72 64v82c-1 20 7 32 28 27v20c-31 9-61-2-59-35zM48-53c0 20 12 33 32 33 41-3 63-29 60-74-43 2-92-5-92 41" id="aM"/><g id="p"><use transform="matrix(0.05,0,0,0.05,0,0)" xlink:href="#aI"/><use transform="matrix(0.05,0,0,0.05,12.950000000000001,0)" xlink:href="#aJ"/><use transform="matrix(0.05,0,0,0.05,22.950000000000003,0)" xlink:href="#aK"/><use transform="matrix(0.05,0,0,0.05,28.900000000000002,0)" xlink:href="#aL"/><use transform="matrix(0.05,0,0,0.05,38.900000000000006,0)" xlink:href="#aM"/></g><path d="M233-177c-1 41-23 64-60 70L243 0h-38l-65-103H63V0H30v-248c88 3 205-21 203 71zM63-129c60-2 137 13 137-47 0-61-80-42-137-45v92" id="aN"/><path d="M30-248c87 1 191-15 191 75 0 78-77 80-158 76V0H30v-248zm33 125c57 0 124 11 124-50 0-59-68-47-124-48v98" id="aO"/><g id="q"><use transform="matrix(0.05,0,0,0.05,0,0)" xlink:href="#aN"/><use transform="matrix(0.05,0,0,0.05,12.950000000000001,0)" xlink:href="#aO"/><use transform="matrix(0.05,0,0,0.05,24.950000000000003,0)" xlink:href="#aI"/></g><path d="M59-47c-2 24 18 29 38 22v24C64 9 27 4 27-40v-127H5v-23h24l9-43h21v43h35v23H59v120" id="aP"/><path d="M96-169c-40 0-48 33-48 73s9 75 48 75c24 0 41-14 43-38l32 2c-6 37-31 61-74 61-59 0-76-41-82-99-10-93 101-131 147-64 4 7 5 14 7 22l-32 3c-4-21-16-35-41-35" id="aQ"/><path d="M24 0v-261h32V0H24" id="aR"/><g id="r"><use transform="matrix(0.05,0,0,0.05,0,0)" xlink:href="#aO"/><use transform="matrix(0.05,0,0,0.05,12,0)" xlink:href="#aK"/><use transform="matrix(0.05,0,0,0.05,17.95,0)" xlink:href="#aJ"/><use transform="matrix(0.05,0,0,0.05,27.950000000000003,0)" xlink:href="#aP"/><use transform="matrix(0.05,0,0,0.05,32.95,0)" xlink:href="#aJ"/><use transform="matrix(0.05,0,0,0.05,42.95,0)" xlink:href="#aQ"/><use transform="matrix(0.05,0,0,0.05,51.95,0)" xlink:href="#aJ"/><use transform="matrix(0.05,0,0,0.05,61.95,0)" xlink:href="#aR"/></g></defs></g></svg>