<?xml version="1.0" encoding="utf-8"?>
<!-- Generator: Adobe Illustrator 23.0.3, SVG Export Plug-In . SVG Version: 6.00 Build 0)  -->
<svg version="1.1" id="Layer_1" xmlns="http://www.w3.org/2000/svg" xmlns:xlink="http://www.w3.org/1999/xlink" x="0px" y="0px"
	 viewBox="0 40 800 353" style="enable-background:new 0 0 800 533;" xml:space="preserve">
<style type="text/css">
	.st0{fill:#F2F2F2;stroke:#C4446A;stroke-width:2;stroke-miterlimit:10;}
	.st1{fill:#4472C4;}
	.st2{fill:none;stroke:#767171;stroke-width:2.0031;stroke-linejoin:round;stroke-miterlimit:10;}
	.st3{fill:none;stroke:#4472C4;stroke-width:2.0031;stroke-linejoin:round;stroke-miterlimit:10;}
	.st4{font-family:'HelveticaLight';}
	.st5{font-size:14.6875px;}
	.st6{fill:#C4446A;}
	.st7{fill:#FFFFFF;fill-opacity:0.75;stroke:#C4446A;stroke-width:2;stroke-miterlimit:10;}
	.st8{fill:#FFFFFF;fill-opacity:0.75;stroke:#4472C4;stroke-width:2;stroke-miterlimit:10;}
	.st9{fill:#DEEBF7;stroke:#4472C4;stroke-width:2;stroke-miterlimit:10;}
	.st10{fill:#FFFFFF;}
</style>
<path class="st0" d="M465.1,127.8c70.2,0,123.8,53.6,123.8,123.8c0,70.2-53.6,123.8-123.8,123.8c-70.2,0-123.8-53.6-123.8-123.8
	C341.3,181.4,394.9,127.8,465.1,127.8z"/>
<path class="st1" d="M420.1,270.8c3.9,0,6.9,3,6.9,6.9c0,3.9-3,6.9-6.9,6.9c-3.9,0-6.9-3-6.9-6.9
	C413.2,273.8,416.2,270.8,420.1,270.8z"/>
<path class="st2" d="M487.2,305.5c3.9,0,6.9,3,6.9,6.9c0,3.9-3,6.9-6.9,6.9c-3.9,0-6.9-3-6.9-6.9S483.3,305.5,487.2,305.5z"/>
<path class="st2" d="M527.2,307.7c3.9,0,6.9,3,6.9,6.9c0,3.9-3,6.9-6.9,6.9c-3.9,0-6.9-3-6.9-6.9
	C520.3,310.7,523.3,307.7,527.2,307.7z"/>
<path class="st2" d="M568.1,253.5c3.9,0,6.9,3,6.9,6.9c0,3.9-3,6.9-6.9,6.9c-3.9,0-6.9-3-6.9-6.9S564.2,253.5,568.1,253.5z"/>
<path class="st2" d="M394.5,242.7c3.9,0,6.9,3,6.9,6.9c0,3.9-3,6.9-6.9,6.9c-3.9,0-6.9-3-6.9-6.9
	C387.7,245.7,390.6,242.7,394.5,242.7z"/>
<path class="st2" d="M497.3,213.5c3.9,0,6.9,3,6.9,6.9c0,3.9-3,6.9-6.9,6.9s-6.9-3-6.9-6.9C490.4,216.5,493.4,213.5,497.3,213.5z"/>
<path class="st2" d="M458.1,305.5c3.9,0,6.9,3,6.9,6.9c0,3.9-3,6.9-6.9,6.9s-6.9-3-6.9-6.9S454.2,305.5,458.1,305.5z"/>
<path class="st2" d="M565.1,214.3c3.9,0,6.9,3,6.9,6.9c0,3.9-3,6.9-6.9,6.9c-3.9,0-6.9-3-6.9-6.9
	C558.2,217.3,561.2,214.3,565.1,214.3z"/>
<line class="st3" x1="445.4" y1="207.3" x2="420.1" y2="277.8"/>
<line class="st3" x1="525" y1="245" x2="445.4" y2="207.3"/>
<line class="st3" x1="420.1" y1="277.8" x2="525" y2="245"/>
<path class="st2" d="M551.6,284.9c3.9,0,6.9,3,6.9,6.9s-3,6.9-6.9,6.9c-3.9,0-6.9-3-6.9-6.9C544.7,287.9,547.7,284.9,551.6,284.9z"
	/>
<path class="st2" d="M409.3,310.7c3.9,0,6.9,3,6.9,6.9c0,3.9-3,6.9-6.9,6.9c-3.9,0-6.9-3-6.9-6.9S405.4,310.7,409.3,310.7z"/>
<path class="st2" d="M436.4,326.8c3.9,0,6.9,3,6.9,6.9c0,3.9-3,6.9-6.9,6.9c-3.9,0-6.9-3-6.9-6.9
	C429.5,329.7,432.5,326.8,436.4,326.8z"/>
<text transform="matrix(1 0 0 1 510.0388 288.5125)" class="st1 st4 st5"> </text>
<text transform="matrix(1 0 0 1 597.2322 288.5125)" class="st1 st4 st5"> </text>
<path class="st2" d="M491.8,334.1c3.9,0,6.9,3,6.9,6.9c0,3.9-3,6.9-6.9,6.9c-3.9,0-6.9-3-6.9-6.9
	C484.9,337.1,487.9,334.1,491.8,334.1z"/>
<path class="st2" d="M540.5,189.7c3.9,0,6.9,3,6.9,6.9c0,3.9-3,6.9-6.9,6.9c-3.9,0-6.9-3-6.9-6.9
	C533.6,192.7,536.6,189.7,540.5,189.7z"/>
<path class="st2" d="M455.8,226c3.9,0,6.9,3,6.9,6.9c0,3.9-3,6.9-6.9,6.9s-6.9-3-6.9-6.9C449,229,451.9,226,455.8,226z"/>
<path class="st2" d="M371.3,270.6c3.9,0,6.9,3,6.9,6.9s-3,6.9-6.9,6.9c-3.9,0-6.9-3-6.9-6.9C364.4,273.6,367.4,270.6,371.3,270.6z"
	/>
<path class="st2" d="M387.2,213.7c3.9,0,6.9,3,6.9,6.9c0,3.9-3,6.9-6.9,6.9c-3.9,0-6.9-3-6.9-6.9S383.4,213.7,387.2,213.7z"/>
<path class="st2" d="M458.6,334.9c3.9,0,6.9,3,6.9,6.9c0,3.9-3,6.9-6.9,6.9c-3.9,0-6.9-3-6.9-6.9
	C451.8,337.9,454.7,334.9,458.6,334.9z"/>
<path class="st2" d="M481.1,185.7c3.9,0,6.9,3,6.9,6.9c0,3.9-3,6.9-6.9,6.9c-3.9,0-6.9-3-6.9-6.9
	C474.2,188.7,477.2,185.7,481.1,185.7z"/>
<path class="st2" d="M418.6,210c3.9,0,6.9,3,6.9,6.9s-3,6.9-6.9,6.9s-6.9-3-6.9-6.9C411.7,213,414.7,210,418.6,210z"/>
<path class="st2" d="M442.9,166.9c3.9,0,6.9,3,6.9,6.9s-3,6.9-6.9,6.9c-3.9,0-6.9-3-6.9-6.9C436,169.9,439,166.9,442.9,166.9z"/>
<path class="st2" d="M468.2,159.8c3.9,0,6.9,3,6.9,6.9s-3,6.9-6.9,6.9c-3.9,0-6.9-3-6.9-6.9S464.3,159.8,468.2,159.8z"/>
<path class="st2" d="M512.8,175.8c3.9,0,6.9,3,6.9,6.9c0,3.9-3,6.9-6.9,6.9s-6.9-3-6.9-6.9C505.9,178.8,508.9,175.8,512.8,175.8z"/>
<path class="st2" d="M409.7,181.7c3.9,0,6.9,3,6.9,6.9c0,3.9-3,6.9-6.9,6.9c-3.9,0-6.9-3-6.9-6.9
	C402.8,184.6,405.8,181.7,409.7,181.7z"/>
<path class="st2" d="M528.8,158.6c3.9,0,6.9,3,6.9,6.9s-3,6.9-6.9,6.9c-3.9,0-6.9-3-6.9-6.9S524.9,158.6,528.8,158.6z"/>
<path class="st2" d="M500.2,153.1c3.9,0,6.9,3,6.9,6.9c0,3.9-3,6.9-6.9,6.9s-6.9-3-6.9-6.9C493.3,156,496.3,153.1,500.2,153.1z"/>
<path class="st2" d="M389.7,169c3.9,0,6.9,3,6.9,6.9c0,3.9-3,6.9-6.9,6.9s-6.9-3-6.9-6.9C382.8,172,385.8,169,389.7,169z"/>
<path class="st6" d="M362.3,219.2c3.9,0,6.9,3,6.9,6.9c0,3.9-3,6.9-6.9,6.9s-6.9-3-6.9-6.9C355.4,222.1,358.4,219.2,362.3,219.2z"/>
<g>
	<rect x="162.4" y="210.9" class="st7" width="184.9" height="32"/>
	<text transform="matrix(1 0 0 1 171.2346 231.322)" class="st6 st4 st5">Trusted Network Notary</text>
</g>
<g>
	<rect x="224.9" y="261.8" class="st8" width="177.9" height="97.8"/>
	<text transform="matrix(1 0 0 1 297.5154 282.1697)" class="st1 st4 st5">Trusted Node</text>
</g>
<path class="st9" d="M525,238.1c3.9,0,6.9,3,6.9,6.9c0,3.9-3,6.9-6.9,6.9c-3.9,0-6.9-3-6.9-6.9C518.1,241,521.1,238.1,525,238.1z"/>
<path class="st9" d="M445.3,200.4c3.9,0,6.9,3,6.9,6.9c0,3.9-3,6.9-6.9,6.9c-3.9,0-6.9-3-6.9-6.9
	C438.5,203.4,441.4,200.4,445.3,200.4z"/>
<g>
	<rect x="459.9" y="187.5" class="st8" width="177.9" height="32"/>
	<text transform="matrix(1 0 0 1 468.7576 207.863)" class="st1 st4 st5">Witness Node</text>
</g>
<path class="st2" d="M500,270.6c3.9,0,6.9,3,6.9,6.9s-3,6.9-6.9,6.9c-3.9,0-6.9-3-6.9-6.9C493.1,273.6,496.1,270.6,500,270.6z"/>
<g>
	<rect x="231.4" y="288.5" class="st1" width="162.8" height="29.1"/>
	<text transform="matrix(1 0 0 1 293.0188 307.6736)" class="st10 st4 st5">DID CorDapp</text>
</g>
<g>
	<rect x="231.4" y="323.3" class="st1" width="162.8" height="29.1"/>
	<text transform="matrix(1 0 0 1 281.7917 342.489)" class="st10 st4 st5">DID Webserver</text>
</g>
<path class="st3" d="M381.2,403.5"/>
</svg>
